# xmcd
#
# Track frame offsets:
#	182
#	12855
#	27157
#	40405
#	55897
#	67205
#	84567
#	101022
#	124450
#	133365
#	153052
#
# Disc length: 2266 seconds
#
# Revision: 0
# Processed by: cddbd v1.5.1PL2 Copyright (c) Steve Scherf et al.
# Submitted via: EasyCDDAExtractor 9.1.0.1
#
DISCID=9808d80b
DTITLE=Romanças - Saias de S. João
DYEAR=1900
DGENRE=Popular
TTITLE0=Salsaparrilha
TTITLE1=Xula
TTITLE2=Monte Da Lua
TTITLE3=Menina Feia
TTITLE4=Sais de S. João
TTITLE5=D. Verão
TTITLE6=Homem Rico
TTITLE7=Veneno De Moriana
TTITLE8=Trigueirinha
TTITLE9=Janeiradas
TTITLE10=Ora Vai-te
EXTD=
EXTT0=
EXTT1=
EXTT2=
EXTT3=
EXTT4=
EXTT5=
EXTT6=
EXTT7=
EXTT8=
EXTT9=
EXTT10=
PLAYORDER=
